<svg id="visual" viewBox="0 0 900 600" width="900" height="600" xmlns="http://www.w3.org/2000/svg" xmlns:xlink="http://www.w3.org/1999/xlink" version="1.1"><path d="M0 37L16.7 45C33.3 53 66.7 69 100 76C133.3 83 166.7 81 200 79C233.3 77 266.7 75 300 71C333.3 67 366.7 61 400 59C433.3 57 466.7 59 500 62C533.3 65 566.7 69 600 68C633.3 67 666.7 61 700 64C733.3 67 766.7 79 800 81C833.3 83 866.7 75 883.3 71L900 67L900 0L883.3 0C866.7 0 833.3 0 800 0C766.7 0 733.3 0 700 0C666.7 0 633.3 0 600 0C566.7 0 533.3 0 500 0C466.7 0 433.3 0 400 0C366.7 0 333.3 0 300 0C266.7 0 233.3 0 200 0C166.7 0 133.3 0 100 0C66.7 0 33.3 0 16.7 0L0 0Z" fill="#faecb9"></path><path d="M0 103L16.7 110C33.3 117 66.7 131 100 138C133.3 145 166.7 145 200 139C233.3 133 266.7 121 300 112C333.3 103 366.7 97 400 98C433.3 99 466.7 107 500 112C533.3 117 566.7 119 600 122C633.3 125 666.7 129 700 130C733.3 131 766.7 129 800 125C833.3 121 866.7 115 883.3 112L900 109L900 65L883.3 69C866.7 73 833.3 81 800 79C766.7 77 733.3 65 700 62C666.7 59 633.3 65 600 66C566.7 67 533.3 63 500 60C466.7 57 433.3 55 400 57C366.7 59 333.3 65 300 69C266.7 73 233.3 75 200 77C166.7 79 133.3 81 100 74C66.7 67 33.3 51 16.7 43L0 35Z" fill="#eed6a4"></path><path d="M0 277L16.7 284C33.3 291 66.7 305 100 301C133.3 297 166.7 275 200 271C233.3 267 266.7 281 300 285C333.3 289 366.7 283 400 284C433.3 285 466.7 293 500 303C533.3 313 566.7 325 600 314C633.3 303 666.7 269 700 250C733.3 231 766.7 227 800 226C833.3 225 866.7 227 883.3 228L900 229L900 107L883.3 110C866.7 113 833.3 119 800 123C766.7 127 733.3 129 700 128C666.7 127 633.3 123 600 120C566.7 117 533.3 115 500 110C466.7 105 433.3 97 400 96C366.7 95 333.3 101 300 110C266.7 119 233.3 131 200 137C166.7 143 133.3 143 100 136C66.7 129 33.3 115 16.7 108L0 101Z" fill="#e2c190"></path><path d="M0 379L16.7 385C33.3 391 66.7 403 100 408C133.3 413 166.7 411 200 409C233.3 407 266.7 405 300 415C333.3 425 366.7 447 400 456C433.3 465 466.7 461 500 458C533.3 455 566.7 453 600 444C633.3 435 666.7 419 700 421C733.3 423 766.7 443 800 453C833.3 463 866.7 463 883.3 463L900 463L900 227L883.3 226C866.7 225 833.3 223 800 224C766.7 225 733.3 229 700 248C666.7 267 633.3 301 600 312C566.7 323 533.3 311 500 301C466.7 291 433.3 283 400 282C366.7 281 333.3 287 300 283C266.7 279 233.3 265 200 269C166.7 273 133.3 295 100 299C66.7 303 33.3 289 16.7 282L0 275Z" fill="#d6ab7e"></path><path d="M0 469L16.7 474C33.3 479 66.7 489 100 494C133.3 499 166.7 499 200 497C233.3 495 266.7 491 300 496C333.3 501 366.7 515 400 524C433.3 533 466.7 537 500 540C533.3 543 566.7 545 600 535C633.3 525 666.7 503 700 502C733.3 501 766.7 521 800 527C833.3 533 866.7 525 883.3 521L900 517L900 461L883.3 461C866.7 461 833.3 461 800 451C766.7 441 733.3 421 700 419C666.7 417 633.3 433 600 442C566.7 451 533.3 453 500 456C466.7 459 433.3 463 400 454C366.7 445 333.3 423 300 413C266.7 403 233.3 405 200 407C166.7 409 133.3 411 100 406C66.7 401 33.3 389 16.7 383L0 377Z" fill="#ca966e"></path><path d="M0 601L16.7 601C33.3 601 66.7 601 100 601C133.3 601 166.7 601 200 601C233.3 601 266.7 601 300 601C333.3 601 366.7 601 400 601C433.3 601 466.7 601 500 601C533.3 601 566.7 601 600 601C633.3 601 666.7 601 700 601C733.3 601 766.7 601 800 601C833.3 601 866.7 601 883.3 601L900 601L900 515L883.3 519C866.7 523 833.3 531 800 525C766.7 519 733.3 499 700 500C666.7 501 633.3 523 600 533C566.7 543 533.3 541 500 538C466.7 535 433.3 531 400 522C366.7 513 333.3 499 300 494C266.7 489 233.3 493 200 495C166.7 497 133.3 497 100 492C66.7 487 33.3 477 16.7 472L0 467Z" fill="#bd815f"></path></svg>