<svg id="visual" viewBox="0 0 960 540" width="960" height="540" xmlns="http://www.w3.org/2000/svg" xmlns:xlink="http://www.w3.org/1999/xlink" version="1.1"><path d="M0 66L20 62.3C40 58.7 80 51.3 120 53.2C160 55 200 66 240 77.7C280 89.3 320 101.7 360 107C400 112.3 440 110.7 480 106.2C520 101.7 560 94.3 600 87.2C640 80 680 73 720 69.5C760 66 800 66 840 63.3C880 60.7 920 55.3 940 52.7L960 50L960 0L940 0C920 0 880 0 840 0C800 0 760 0 720 0C680 0 640 0 600 0C560 0 520 0 480 0C440 0 400 0 360 0C320 0 280 0 240 0C200 0 160 0 120 0C80 0 40 0 20 0L0 0Z" fill="#faecb9"></path><path d="M0 125L20 117.8C40 110.7 80 96.3 120 97.3C160 98.3 200 114.7 240 124.5C280 134.3 320 137.7 360 143.8C400 150 440 159 480 156.3C520 153.7 560 139.3 600 131.3C640 123.3 680 121.7 720 116.3C760 111 800 102 840 95.7C880 89.3 920 85.7 940 83.8L960 82L960 48L940 50.7C920 53.3 880 58.7 840 61.3C800 64 760 64 720 67.5C680 71 640 78 600 85.2C560 92.3 520 99.7 480 104.2C440 108.7 400 110.3 360 105C320 99.7 280 87.3 240 75.7C200 64 160 53 120 51.2C80 49.3 40 56.7 20 60.3L0 64Z" fill="#f1dcaa"></path><path d="M0 158L20 153.5C40 149 80 140 120 140.8C160 141.7 200 152.3 240 160.3C280 168.3 320 173.7 360 180C400 186.3 440 193.7 480 189.2C520 184.7 560 168.3 600 165.7C640 163 680 174 720 173.2C760 172.3 800 159.7 840 147C880 134.3 920 121.7 940 115.3L960 109L960 80L940 81.8C920 83.7 880 87.3 840 93.7C800 100 760 109 720 114.3C680 119.7 640 121.3 600 129.3C560 137.3 520 151.7 480 154.3C440 157 400 148 360 141.8C320 135.7 280 132.3 240 122.5C200 112.7 160 96.3 120 95.3C80 94.3 40 108.7 20 115.8L0 123Z" fill="#e9cd9b"></path><path d="M0 212L20 204.7C40 197.3 80 182.7 120 186.2C160 189.7 200 211.3 240 219.5C280 227.7 320 222.3 360 229.5C400 236.7 440 256.3 480 255.5C520 254.7 560 233.3 600 229.8C640 226.3 680 240.7 720 242.3C760 244 800 233 840 221.3C880 209.7 920 197.3 940 191.2L960 185L960 107L940 113.3C920 119.7 880 132.3 840 145C800 157.7 760 170.3 720 171.2C680 172 640 161 600 163.7C560 166.3 520 182.7 480 187.2C440 191.7 400 184.3 360 178C320 171.7 280 166.3 240 158.3C200 150.3 160 139.7 120 138.8C80 138 40 147 20 151.5L0 156Z" fill="#e0be8e"></path><path d="M0 233L20 230.3C40 227.7 80 222.3 120 226.8C160 231.3 200 245.7 240 252.8C280 260 320 260 360 266.3C400 272.7 440 285.3 480 284.5C520 283.7 560 269.3 600 268.5C640 267.7 680 280.3 720 281.2C760 282 800 271 840 259.2C880 247.3 920 234.7 940 228.3L960 222L960 183L940 189.2C920 195.3 880 207.7 840 219.3C800 231 760 242 720 240.3C680 238.7 640 224.3 600 227.8C560 231.3 520 252.7 480 253.5C440 254.3 400 234.7 360 227.5C320 220.3 280 225.7 240 217.5C200 209.3 160 187.7 120 184.2C80 180.7 40 195.3 20 202.7L0 210Z" fill="#d8ae81"></path><path d="M0 357L20 357C40 357 80 357 120 364.3C160 371.7 200 386.3 240 394.5C280 402.7 320 404.3 360 401.5C400 398.7 440 391.3 480 390.5C520 389.7 560 395.3 600 393.7C640 392 680 383 720 377.5C760 372 800 370 840 374.5C880 379 920 390 940 395.5L960 401L960 220L940 226.3C920 232.7 880 245.3 840 257.2C800 269 760 280 720 279.2C680 278.3 640 265.7 600 266.5C560 267.3 520 281.7 480 282.5C440 283.3 400 270.7 360 264.3C320 258 280 258 240 250.8C200 243.7 160 229.3 120 224.8C80 220.3 40 225.7 20 228.3L0 231Z" fill="#cf9f74"></path><path d="M0 395L20 396.8C40 398.7 80 402.3 120 407.8C160 413.3 200 420.7 240 427.8C280 435 320 442 360 438.3C400 434.7 440 420.3 480 418.5C520 416.7 560 427.3 600 426.5C640 425.7 680 413.3 720 407.2C760 401 800 401 840 409C880 417 920 433 940 441L960 449L960 399L940 393.5C920 388 880 377 840 372.5C800 368 760 370 720 375.5C680 381 640 390 600 391.7C560 393.3 520 387.7 480 388.5C440 389.3 400 396.7 360 399.5C320 402.3 280 400.7 240 392.5C200 384.3 160 369.7 120 362.3C80 355 40 355 20 355L0 355Z" fill="#c69069"></path><path d="M0 541L20 541C40 541 80 541 120 541C160 541 200 541 240 541C280 541 320 541 360 541C400 541 440 541 480 541C520 541 560 541 600 541C640 541 680 541 720 541C760 541 800 541 840 541C880 541 920 541 940 541L960 541L960 447L940 439C920 431 880 415 840 407C800 399 760 399 720 405.2C680 411.3 640 423.7 600 424.5C560 425.3 520 414.7 480 416.5C440 418.3 400 432.7 360 436.3C320 440 280 433 240 425.8C200 418.7 160 411.3 120 405.8C80 400.3 40 396.7 20 394.8L0 393Z" fill="#bd815f"></path></svg>