<svg id="visual" viewBox="0 0 900 600" width="900" height="600" xmlns="http://www.w3.org/2000/svg" xmlns:xlink="http://www.w3.org/1999/xlink" version="1.1"><path d="M0 169L16.7 162C33.3 155 66.7 141 100 149C133.3 157 166.7 187 200 187C233.3 187 266.7 157 300 141C333.3 125 366.7 123 400 124C433.3 125 466.7 129 500 134C533.3 139 566.7 145 600 152C633.3 159 666.7 167 700 169C733.3 171 766.7 167 800 172C833.3 177 866.7 191 883.3 198L900 205L900 0L883.3 0C866.7 0 833.3 0 800 0C766.7 0 733.3 0 700 0C666.7 0 633.3 0 600 0C566.7 0 533.3 0 500 0C466.7 0 433.3 0 400 0C366.7 0 333.3 0 300 0C266.7 0 233.3 0 200 0C166.7 0 133.3 0 100 0C66.7 0 33.3 0 16.7 0L0 0Z" fill="#faecb9"></path><path d="M0 205L16.7 201C33.3 197 66.7 189 100 197C133.3 205 166.7 229 200 230C233.3 231 266.7 209 300 197C333.3 185 366.7 183 400 187C433.3 191 466.7 201 500 204C533.3 207 566.7 203 600 204C633.3 205 666.7 211 700 211C733.3 211 766.7 205 800 210C833.3 215 866.7 231 883.3 239L900 247L900 203L883.3 196C866.7 189 833.3 175 800 170C766.7 165 733.3 169 700 167C666.7 165 633.3 157 600 150C566.7 143 533.3 137 500 132C466.7 127 433.3 123 400 122C366.7 121 333.3 123 300 139C266.7 155 233.3 185 200 185C166.7 185 133.3 155 100 147C66.7 139 33.3 153 16.7 160L0 167Z" fill="#eed6a4"></path><path d="M0 319L16.7 306C33.3 293 66.7 267 100 266C133.3 265 166.7 289 200 294C233.3 299 266.7 285 300 283C333.3 281 366.7 291 400 300C433.3 309 466.7 317 500 311C533.3 305 566.7 285 600 288C633.3 291 666.7 317 700 329C733.3 341 766.7 339 800 336C833.3 333 866.7 329 883.3 327L900 325L900 245L883.3 237C866.7 229 833.3 213 800 208C766.7 203 733.3 209 700 209C666.7 209 633.3 203 600 202C566.7 201 533.3 205 500 202C466.7 199 433.3 189 400 185C366.7 181 333.3 183 300 195C266.7 207 233.3 229 200 228C166.7 227 133.3 203 100 195C66.7 187 33.3 195 16.7 199L0 203Z" fill="#e2c190"></path><path d="M0 463L16.7 460C33.3 457 66.7 451 100 448C133.3 445 166.7 445 200 446C233.3 447 266.7 449 300 449C333.3 449 366.7 447 400 453C433.3 459 466.7 473 500 480C533.3 487 566.7 487 600 489C633.3 491 666.7 495 700 491C733.3 487 766.7 475 800 466C833.3 457 866.7 451 883.3 448L900 445L900 323L883.3 325C866.7 327 833.3 331 800 334C766.7 337 733.3 339 700 327C666.7 315 633.3 289 600 286C566.7 283 533.3 303 500 309C466.7 315 433.3 307 400 298C366.7 289 333.3 279 300 281C266.7 283 233.3 297 200 292C166.7 287 133.3 263 100 264C66.7 265 33.3 291 16.7 304L0 317Z" fill="#d6ab7e"></path><path d="M0 523L16.7 522C33.3 521 66.7 519 100 513C133.3 507 166.7 497 200 493C233.3 489 266.7 491 300 497C333.3 503 366.7 513 400 520C433.3 527 466.7 531 500 533C533.3 535 566.7 535 600 538C633.3 541 666.7 547 700 542C733.3 537 766.7 521 800 516C833.3 511 866.7 517 883.3 520L900 523L900 443L883.3 446C866.7 449 833.3 455 800 464C766.7 473 733.3 485 700 489C666.7 493 633.3 489 600 487C566.7 485 533.3 485 500 478C466.7 471 433.3 457 400 451C366.7 445 333.3 447 300 447C266.7 447 233.3 445 200 444C166.7 443 133.3 443 100 446C66.7 449 33.3 455 16.7 458L0 461Z" fill="#ca966e"></path><path d="M0 601L16.7 601C33.3 601 66.7 601 100 601C133.3 601 166.7 601 200 601C233.3 601 266.7 601 300 601C333.3 601 366.7 601 400 601C433.3 601 466.7 601 500 601C533.3 601 566.7 601 600 601C633.3 601 666.7 601 700 601C733.3 601 766.7 601 800 601C833.3 601 866.7 601 883.3 601L900 601L900 521L883.3 518C866.7 515 833.3 509 800 514C766.7 519 733.3 535 700 540C666.7 545 633.3 539 600 536C566.7 533 533.3 533 500 531C466.7 529 433.3 525 400 518C366.7 511 333.3 501 300 495C266.7 489 233.3 487 200 491C166.7 495 133.3 505 100 511C66.7 517 33.3 519 16.7 520L0 521Z" fill="#bd815f"></path></svg>